<?xml version="1.0" encoding="UTF-8" standalone="no"?>
<!-- Created with Inkscape (http://www.inkscape.org/) -->

<svg
   width="58.725044mm"
   height="73.900787mm"
   viewBox="0 0 58.725044 73.900787"
   version="1.1"
   id="svg1"
   xml:space="preserve"
   inkscape:version="1.3 (0e150ed6c4, 2023-07-21)"
   sodipodi:docname="jar.svg"
   xmlns:inkscape="http://www.inkscape.org/namespaces/inkscape"
   xmlns:sodipodi="http://sodipodi.sourceforge.net/DTD/sodipodi-0.dtd"
   xmlns="http://www.w3.org/2000/svg"
   xmlns:svg="http://www.w3.org/2000/svg"><sodipodi:namedview
     id="namedview1"
     pagecolor="#505050"
     bordercolor="#ffffff"
     borderopacity="1"
     inkscape:showpageshadow="0"
     inkscape:pageopacity="0"
     inkscape:pagecheckerboard="1"
     inkscape:deskcolor="#d1d1d1"
     inkscape:document-units="mm"
     inkscape:zoom="2.35263"
     inkscape:cx="-11.26399"
     inkscape:cy="167.25962"
     inkscape:window-width="2560"
     inkscape:window-height="1371"
     inkscape:window-x="0"
     inkscape:window-y="539"
     inkscape:window-maximized="1"
     inkscape:current-layer="layer1" /><defs
     id="defs1" /><g
     inkscape:label="Layer 1"
     inkscape:groupmode="layer"
     id="layer1"
     transform="translate(-39.144127,-210.52424)"><path
       style="fill:#999999"
       d="m 61.39475,284.18612 c -2.877383,-0.37272 -5.499191,-2.04038 -7.037034,-4.47607 -0.804349,-1.27396 -14.33117,-36.29678 -14.711442,-38.08998 -0.488318,-2.30268 -0.167411,-5.06512 0.923247,-7.94752 0.523099,-1.38245 0.951939,-2.64868 0.952979,-2.81384 10e-4,-0.16516 -0.301451,-0.49906 -0.6722,-0.74198 -1.159828,-0.75995 -1.705076,-1.95934 -1.706171,-3.7531 -0.0026,-4.33829 2.401759,-6.99961 9.428784,-10.43626 5.478189,-2.67917 12.007753,-4.58491 18.056964,-5.27018 4.439461,-0.50291 6.424284,0.38857 7.18913,3.22899 0.23917,0.88822 0.200313,1.2114 -0.256719,2.13514 -0.510882,1.03258 -0.51512,1.11449 -0.08249,1.59436 0.25083,0.27822 1.634542,1.09773 3.074917,1.82114 2.843691,1.42821 4.909998,3.15998 6.236021,5.22641 0.914642,1.42534 14.423483,36.12452 14.864712,38.1819 0.746749,3.48197 -0.459768,6.68404 -3.676082,9.75626 -6.149907,5.87438 -17.035835,10.63942 -26.487694,11.59434 -3.047103,0.30785 -3.653588,0.30689 -6.096917,-0.01 z m 11.085889,-4.73229 c 9.418252,-1.9238 18.081581,-6.80543 22.487922,-12.67153 1.316692,-1.7529 1.540257,-2.51246 1.158613,-3.93638 -0.147354,-0.54978 -0.29416,-0.4666 -2.046908,1.1597 -6.605235,6.12875 -14.287148,10.24096 -22.454121,12.01993 -3.386911,0.73775 -9.982345,1.01195 -10.555466,0.43883 -0.22451,-0.22451 -1.932991,-4.49741 -3.796625,-9.49533 -1.863633,-4.99792 -4.205172,-11.2144 -5.20342,-13.81441 -0.998247,-2.6 -1.814995,-4.81694 -1.814995,-4.92651 0,-0.10958 0.744141,-0.34248 1.653646,-0.51757 7.708346,-1.48389 17.31898,-4.91126 23.878645,-8.51567 3.848565,-2.11471 8.863542,-5.45607 8.863542,-5.90556 0,-0.6997 -2.430597,-6.64832 -3.223483,-7.88913 -1.161289,-1.81733 -2.921236,-3.25759 -5.640059,-4.61557 -1.309687,-0.65415 -2.705154,-1.49369 -3.101036,-1.86565 -0.544131,-0.51125 -0.748969,-0.58532 -0.839364,-0.30354 -0.06577,0.205 -0.310593,0.97859 -0.544057,1.71907 -0.543239,1.72301 -1.441839,2.54684 -3.585334,3.28698 -2.214576,0.76469 -2.487312,0.91339 -3.723358,2.03008 -0.954697,0.86252 -1.123699,0.91999 -2.291695,0.77936 -4.559584,-0.54899 -4.93213,-0.53624 -5.805588,0.19873 -0.666584,0.56089 -0.876563,1.00613 -1.106511,2.34622 -0.246907,1.43894 -0.425961,1.78203 -1.37726,2.63904 -0.611715,0.55109 -1.503294,1.06197 -2.023705,1.1596 -0.903924,0.16957 -1.321712,0.0789 -3.74581,-0.81265 -1.594129,-0.58631 -2.141237,-0.18717 -3.029976,2.21052 -1.783406,4.81136 -1.648879,6.98659 0.838762,13.56234 2.239647,5.92021 7.175096,18.26163 9.024866,22.56727 2.651226,6.17117 4.530424,8.40032 8.0809,9.58576 1.479519,0.49399 6.44151,0.27698 9.921875,-0.43393 z m -4.227501,-3.82895 c 6.330453,-0.84289 12.754078,-3.16037 18.23901,-6.58016 2.337136,-1.45718 6.180721,-4.31265 7.901142,-5.86989 1.481542,-1.34102 1.504958,-1.43125 0.831307,-3.20308 -0.270329,-0.71102 -0.27108,-0.7112 -0.857783,-0.19756 -1.501333,1.31438 -1.338596,1.43646 -2.778592,-2.08439 -0.730502,-1.7861 -1.922193,-4.97386 -2.648203,-7.08392 -0.726009,-2.11005 -1.986034,-5.38964 -2.800055,-7.28797 -0.814021,-1.89834 -1.55541,-3.82839 -1.647532,-4.28899 -0.153214,-0.76607 -0.08591,-0.87638 0.789523,-1.29384 0.526359,-0.251 0.950873,-0.58315 0.943365,-0.7381 -0.0075,-0.15494 -0.280336,-0.97766 -0.606284,-1.82826 l -0.592633,-1.54653 -1.179653,0.99553 c -3.659375,3.08822 -11.855577,7.65537 -17.451528,9.72449 -4.659528,1.72286 -13.058049,3.88242 -15.098748,3.88242 -0.281417,0 -0.511668,0.11372 -0.511668,0.25271 0,0.38877 8.359261,21.65795 10.585358,26.93323 0.228088,0.54051 0.428323,0.59484 2.175115,0.59015 1.058146,-0.003 3.176682,-0.17197 4.707859,-0.37584 z m -5.171282,-6.16157 c -0.845761,-2.00414 -2.215337,-5.54888 -3.043502,-7.87722 -0.828165,-2.32833 -2.070928,-5.60255 -2.761695,-7.27604 -0.690768,-1.67349 -1.315666,-3.19154 -1.388663,-3.37344 -0.09268,-0.23095 0.180606,-0.33073 0.905897,-0.33073 4.07932,0 7.337038,3.22263 7.6889,7.60608 0.169531,2.11201 -0.398429,3.67139 -1.797604,4.93546 -1.025049,0.92607 -1.030267,0.94072 -0.65491,1.83908 0.672102,1.60856 2.786372,7.92365 2.686313,8.02371 -0.05334,0.0533 -0.788975,-1.54276 -1.634736,-3.5469 z m -0.417591,-6.87004 c 0.463322,-0.56208 0.936017,-1.56047 1.112771,-2.35029 0.589078,-2.63228 -1.133138,-6.48749 -3.522221,-7.88455 -1.452618,-0.84944 -3.384593,-1.3172 -3.384593,-0.81946 0,1.01137 4.377278,12.0315 4.779002,12.0315 0.115256,0 0.572024,-0.43974 1.015041,-0.9772 z m 7.099245,6.33785 c -4.089194,-8.71225 -6.599497,-18.7604 -5.069181,-20.29071 2.080619,-2.08062 6.381768,4.87888 10.336971,16.7258 0.797887,2.38989 1.403859,4.3921 1.346603,4.44935 -0.05725,0.0573 -0.560907,-1.05657 -1.119228,-2.47518 -0.55832,-1.41861 -1.422299,-3.55823 -1.919952,-4.75471 l -0.904826,-2.17543 -1.237831,0.62726 c -0.680807,0.34499 -1.737589,0.76182 -2.348404,0.9263 l -1.110574,0.29904 0.756762,2.04288 c 0.41622,1.12358 1.181826,3.16808 1.701348,4.54334 0.519521,1.37525 0.907654,2.53739 0.862518,2.58252 -0.04514,0.0451 -0.627529,-1.08007 -1.294206,-2.50046 z m -0.417998,-7.87161 c 0.778434,-0.36238 1.593929,-0.66186 1.81221,-0.66551 1.148274,-0.0192 1.127163,-0.3971 -0.186664,-3.34145 -3.008705,-6.74265 -5.217292,-9.53728 -6.154027,-7.78698 -0.382793,0.71526 -0.33464,2.76982 0.108926,4.64761 0.508306,2.15184 2.531612,7.8052 2.79344,7.8052 0.115929,0 0.847681,-0.29649 1.626115,-0.65887 z m 9.286008,8.00106 c -0.389615,-0.48826 -1.030797,-1.82375 -1.238533,-2.57969 -0.09997,-0.3638 0.18359,-0.0155 0.630142,0.77391 0.446553,0.78945 0.862477,1.48592 0.924276,1.54772 0.215637,0.21564 1.951875,-0.49782 3.161858,-1.29928 0.795906,-0.52719 1.219292,-0.99762 1.219292,-1.35478 0,-0.7503 -1.736163,-5.77081 -2.704009,-7.81926 -0.435562,-0.92187 -0.963631,-1.74201 -1.173486,-1.82254 -0.209855,-0.0805 -1.188937,0.22573 -2.175736,0.68058 -2.259019,1.04124 -2.971734,1.0509 -3.812545,0.0517 -0.883153,-1.04957 -2.984301,-6.09621 -3.703776,-8.89591 l -0.585656,-2.27897 0.661458,-0.54567 c 0.363802,-0.30012 1.424216,-0.90547 2.356475,-1.34524 1.54687,-0.72968 1.75314,-0.76678 2.360037,-0.42453 0.365761,0.20626 0.721726,0.55362 0.791034,0.7719 0.09403,0.29615 -0.01538,0.27141 -0.431146,-0.0975 -0.71758,-0.63672 -1.574009,-0.43907 -3.452933,0.7969 -1.391853,0.91557 -1.41608,0.95337 -1.255354,1.95849 0.307436,1.9226 2.052387,7.26035 2.893621,8.85149 1.044145,1.97494 1.483879,2.07071 3.7329,0.81298 2.154996,-1.20514 2.829717,-1.21127 3.727778,-0.0339 0.828683,1.08646 2.898838,6.05949 3.338041,8.01881 0.438463,1.95602 0.13874,2.45428 -2.171604,3.6101 -2.038006,1.01957 -2.673341,1.14751 -3.092134,0.62269 z m 8.808458,-7.65434 c -1.158588,-2.53458 -2.408205,-5.77718 -3.448436,-8.94826 -0.405758,-1.23693 -1.246831,-3.3886 -1.869052,-4.7815 -0.622221,-1.39289 -1.387797,-3.37696 -1.701281,-4.40904 l -0.569971,-1.8765 -1.713976,0.80206 c -0.942687,0.44114 -1.771182,0.74486 -1.8411,0.67495 -0.196529,-0.19653 2.98812,-2.18978 4.994923,-3.12629 0.989444,-0.46174 1.865651,-0.77286 1.947127,-0.69139 0.08148,0.0815 -0.549475,0.58912 -1.402113,1.12809 -0.852639,0.53897 -1.57981,1.00201 -1.615936,1.02897 -0.03612,0.027 0.405522,1.13545 0.98144,2.46329 0.575917,1.32784 1.24738,3.10407 1.492139,3.94716 0.24476,0.8431 0.855782,2.48541 1.357826,3.64957 2.659761,6.16759 4.781821,11.91357 4.50285,12.19254 -0.06632,0.0663 -0.567814,-0.85783 -1.11444,-2.05365 z m 6.750275,-2.02705 0.601572,-0.48713 -2.068781,-5.33733 c -1.906507,-4.91867 -2.103494,-5.30591 -2.511323,-4.93683 -0.243398,0.22027 -0.581995,0.40049 -0.752437,0.40049 -0.485116,0 -0.394999,0.3336 0.983946,3.64234 0.711612,1.7075 1.62002,4.02727 2.018683,5.15506 0.398663,1.12779 0.815276,2.05052 0.925805,2.05052 0.11053,0 0.471671,-0.2192 0.802535,-0.48712 z m -4.474875,-11.23021 0.698282,-0.58579 -1.897045,-4.8948 c -1.043374,-2.69213 -2.012445,-4.89479 -2.15349,-4.89479 -0.141045,0 -0.533625,0.19631 -0.872399,0.43625 -0.579865,0.41068 -0.592969,0.48069 -0.223652,1.19487 0.215766,0.41724 0.990795,2.48312 1.722286,4.59084 1.656967,4.77437 1.651449,4.76027 1.857606,4.74874 0.09357,-0.005 0.484357,-0.27313 0.868412,-0.59532 z M 51.662096,230.9835 c 1.415016,-0.75364 1.564868,-1.8277 0.560945,-4.02056 -0.605092,-1.3217 -0.640577,-1.56112 -0.328251,-2.21479 0.451265,-0.94445 1.3004,-1.0551 2.318813,-0.30215 l 0.807047,0.59667 0.871237,-0.84443 c 1.109981,-1.07584 1.599543,-1.0619 2.865259,0.0816 1.311244,1.18463 2.624975,1.27396 3.490909,0.23738 2.030663,-2.43085 1.755586,-2.26356 4.024784,-2.44769 2.081146,-0.16886 2.112383,-0.1822 2.569404,-1.09698 0.254456,-0.50932 0.593259,-1.45728 0.752896,-2.10657 0.217283,-0.88376 0.616463,-1.47646 1.587875,-2.35769 1.564864,-1.41958 1.686118,-2.237 0.524404,-3.53521 l -0.77322,-0.86407 -2.600217,0.0166 c -6.72708,0.0429 -18.598645,3.98404 -24.229904,8.04385 -1.390617,1.00255 -1.873302,1.59685 -1.296954,1.59685 0.12342,0 0.435996,0.46924 0.694614,1.04275 0.829767,1.84009 1.66691,1.65825 2.390135,-0.51918 0.773222,-2.32795 3.379884,-4.22774 5.800804,-4.22774 0.447483,0 1.646285,0.23813 2.664005,0.52917 1.01772,0.29104 2.316577,0.52917 2.886349,0.52917 2.195319,0 10.380997,-3.33331 10.992753,-4.47639 0.518896,-0.96956 0.06517,-1.41931 -1.27903,-1.2678 -1.087582,0.12259 -1.159252,0.0987 -0.703389,-0.23466 0.599764,-0.43856 1.561409,-0.47965 2.275919,-0.0973 0.670859,0.35903 0.667769,1.57309 -0.0062,2.42989 -1.115558,1.4182 -7.531215,4.05673 -10.594542,4.35714 -1.17902,0.11563 -1.777717,0.0115 -3.154471,-0.54869 -3.817952,-1.55346 -6.644773,-0.44753 -8.035874,3.14386 -0.33701,0.87005 -0.904612,1.77125 -1.302854,2.06858 -0.670392,0.50052 -0.739821,0.5045 -1.388492,0.0795 -0.375548,-0.24607 -0.871541,-0.91907 -1.102207,-1.49556 -0.230665,-0.57649 -0.527277,-1.04817 -0.659136,-1.04817 -0.411096,0 -1.256235,1.63313 -1.547171,2.98972 -0.388882,1.81329 0.01971,3.22341 1.130215,3.90053 1.230444,0.75025 1.684607,0.64679 2.444424,-0.55684 0.906006,-1.43521 1.485539,-1.31233 3.011793,0.63857 1.69741,2.16967 2.927616,2.73145 4.337313,1.98064 z"
       id="path1"
       sodipodi:nodetypes="cssssscssssssssssccssssssssscsssssssssssssssssssssssssssssssscssssscssssssssssssssssssssssscsscsssssssssssssssssssssscssssssssssssssssscsssssssssssscsssssssscssssscssssscsssssssscssssssssssssssssssssssssss" /></g></svg>
